# xmcd CD database file
# Copyright (C) 1993-1998 Ti Kan
# 
# Track frame offsets:
#     150
#     14806
#     29395
#     47525
#     64553
#     85133
#     100751
#     114799
#     131527
#     143931
# 
# Disc length: 2070 seconds
# 
# Revision: 1
# Processed by: cddbd v1.4b41PL1 Copyright (c) Steve Scherf et al.
# Submitted via: DiscPlay 4.0.4
# 
DISCID=7c08140a
DTITLE=Debbie Myers - It Matters To Me
DYEAR=1900
DGENRE=
TTITLE0=Independence Day
TTITLE1=It Matters To Me
TTITLE2=Who's Bed Have Your Boots Been Under
TTITLE3=Till You Love Me
TTITLE4=I Will Always Love You
TTITLE5=T'envoler
TTITLE6=Me And The Man In The Moon
TTITLE7=I Don't Go Home Anymore
TTITLE8=Strong Enough To Bend
TTITLE9=Sweet Dreams
EXTD=
EXTT0=
EXTT1=
EXTT2=
EXTT3=
EXTT4=
EXTT5=
EXTT6=
EXTT7=
EXTT8=
EXTT9=
PLAYORDER=
